<svg width="356" height="111" viewBox="0 0 356 111" fill="none" xmlns="http://www.w3.org/2000/svg">
<path d="M355.502 13.3052H349.725L349.862 109.598H343.672V13.3052H337.894V7.52759H355.502V13.3052Z" fill="#1A2517"/>
<path d="M321.774 109.598H315.583V7.66528H321.774V109.598Z" fill="#1A2517"/>
<path d="M293.41 109.598H287.633L281.993 24.3102V109.598H275.802V7.66528H281.993H288.183L293.41 102.995V7.66528H299.463V109.598H293.41Z" fill="#1A2517"/>
<path d="M259.682 18.1197V58.4253V58.5628V98.8684C259.682 99.6938 259.636 100.565 259.544 101.482C259.452 102.307 259.315 103.179 259.132 104.096C258.673 105.93 257.848 107.397 256.655 108.498C255.463 109.506 253.95 110.057 252.116 110.148C248.448 110.332 246.017 108.773 244.825 105.471C244.367 104.463 244.046 103.408 243.862 102.307C243.77 101.115 243.725 99.9689 243.725 98.8684V58.838V58.5628V58.4253V58.1502V18.1197C243.725 17.0192 243.77 15.9187 243.862 14.8183C244.046 13.7178 244.367 12.6173 244.825 11.5168C246.017 8.21529 248.448 6.65626 252.116 6.83968C253.95 6.93138 255.463 7.52748 256.655 8.62798C257.848 9.63676 258.673 11.0582 259.132 12.8924C259.315 13.8095 259.452 14.7265 259.544 15.6436C259.636 16.469 259.682 17.2944 259.682 18.1197ZM253.491 100.244V58.4253V16.7441C253.491 16.3773 253.446 16.0563 253.354 15.7812C253.354 15.4143 253.354 15.0934 253.354 14.8183C253.171 13.6261 252.666 13.0299 251.841 13.0299C251.015 13.0299 250.465 13.5802 250.19 14.6807C250.098 15.0475 250.052 15.4143 250.052 15.7812C250.052 16.148 250.052 16.5148 250.052 16.8817V58.4253V58.5628V100.106C250.052 100.473 250.052 100.84 250.052 101.207C250.052 101.574 250.098 101.941 250.19 102.307C250.465 103.408 251.015 103.958 251.841 103.958C252.666 103.958 253.171 103.362 253.354 102.17C253.354 101.895 253.354 101.62 253.354 101.344C253.446 100.978 253.491 100.611 253.491 100.244Z" fill="#1A2517"/>
<path d="M227.604 109.599H221.414V65.4412V65.1661C221.322 64.891 221.276 64.6159 221.276 64.3407C221.368 64.0656 221.368 63.7905 221.276 63.5154C221.093 62.5983 220.772 62.0481 220.313 61.8646C219.946 61.5895 219.167 61.452 217.975 61.452V103.408V109.599H211.647V7.39025C211.738 7.29854 211.876 7.25269 212.059 7.25269H219.488C220.497 7.34439 221.459 7.4361 222.377 7.52781C223.294 7.52781 224.119 7.71122 224.853 8.07805C225.586 8.35318 226.182 8.90343 226.641 9.7288C227.099 10.5542 227.329 11.7464 227.329 13.3054C227.329 13.7639 227.329 16.6527 227.329 21.9718C227.42 27.2908 227.466 34.5357 227.466 43.7065C227.466 47.008 227.145 49.6675 226.503 51.6851C225.861 53.7027 224.44 54.9407 222.239 55.3992C224.44 55.7661 225.861 57.0041 226.503 59.1134C227.237 61.131 227.604 63.7905 227.604 67.092V68.8803V109.599ZM221.414 45.6324V17.7074C221.414 17.4322 221.368 17.1571 221.276 16.882C221.276 16.6069 221.276 16.3317 221.276 16.0566C221.093 13.9474 219.992 13.122 217.975 13.5805V49.3465C219.075 49.3465 219.809 49.2548 220.176 49.0714C220.634 48.7963 220.955 48.2002 221.138 47.2831C221.23 47.008 221.276 46.7329 221.276 46.4577C221.276 46.1826 221.322 45.9075 221.414 45.6324Z" fill="#1A2517"/>
<path d="M186.585 52.6479H195.527V58.2879H192.913V98.1808C192.913 99.373 192.821 100.565 192.638 101.757C192.455 102.95 192.134 104.096 191.675 105.196C190.208 108.314 187.823 109.782 184.522 109.598C182.596 109.507 181.037 108.956 179.845 107.948C178.744 106.939 177.965 105.563 177.506 103.821C177.139 102.078 176.956 100.198 176.956 98.1808C176.864 91.3027 176.818 84.5163 176.818 77.8216C176.818 71.0353 176.818 64.203 176.818 57.325C176.818 50.6303 176.818 43.9815 176.818 37.3785C176.818 30.6839 176.864 23.9892 176.956 17.2945C176.956 16.194 177.002 15.0935 177.093 13.993C177.185 12.8926 177.46 11.7921 177.919 10.6916C179.111 7.39009 181.541 5.83106 185.21 6.01448C187.044 6.10619 188.557 6.70229 189.749 7.80278C190.941 8.81157 191.767 10.233 192.225 12.0672C192.409 12.9843 192.546 13.9013 192.638 14.8184C192.73 15.6438 192.776 16.4692 192.776 17.2945C192.776 21.0545 192.776 24.7687 192.776 28.437C192.867 32.0136 192.913 35.6361 192.913 39.3044H186.585V15.9189C186.585 15.5521 186.539 15.2311 186.448 14.956C186.448 14.5892 186.448 14.2682 186.448 13.993C186.264 12.8009 185.76 12.2048 184.934 12.2048C184.109 12.2048 183.559 12.755 183.284 13.8555C183.284 14.2223 183.238 14.5892 183.146 14.956C183.146 15.3228 183.146 15.6896 183.146 16.0565V99.6939C183.146 100.152 183.146 100.565 183.146 100.932C183.238 101.299 183.33 101.712 183.421 102.17C183.605 102.995 184.063 103.408 184.797 103.408C185.531 103.408 185.989 103.041 186.173 102.308C186.448 101.482 186.585 100.703 186.585 99.9691V58.2879V52.6479Z" fill="#1A2517"/>
<path d="M160.698 109.598H154.645L152.444 77.1339H146.254L144.19 109.598H138L143.64 7.66528H155.195L160.698 109.598ZM152.169 71.3563L149.418 30.363L146.666 71.3563H152.169Z" fill="#1A2517"/>
<path d="M55.9714 7C55.9714 10.866 52.8374 14 48.9714 14C45.1054 14 41.9714 10.866 41.9714 7C41.9714 3.13401 45.1054 0 48.9714 0C52.8374 0 55.9714 3.13401 55.9714 7Z" fill="#1A2517"/>
<path d="M40.9714 56C40.9714 59.866 37.8374 63 33.9714 63C30.1054 63 26.9714 59.866 26.9714 56C26.9714 52.134 30.1054 49 33.9714 49C37.8374 49 40.9714 52.134 40.9714 56Z" fill="#1A2517"/>
<path d="M70.9714 90C70.9714 93.866 67.8374 97 63.9714 97C60.1054 97 56.9714 93.866 56.9714 90C56.9714 86.134 60.1054 83 63.9714 83C67.8374 83 70.9714 86.134 70.9714 90Z" fill="#1A2517"/>
<path d="M89.9714 48C89.9714 51.866 86.8374 55 82.9714 55C79.1054 55 75.9714 51.866 75.9714 48C75.9714 44.134 79.1054 41 82.9714 41C86.8374 41 89.9714 44.134 89.9714 48Z" fill="#1A2517"/>
<path d="M43.499 45.5703C43.0729 46.8835 41.6629 47.6029 40.3496 47.1769C39.0363 46.7509 38.3171 45.3407 38.743 44.0274L46.5849 19.8535C47.0109 18.5402 48.421 17.8209 49.7343 18.2469C51.0476 18.6729 51.7669 20.083 51.3409 21.3963L43.499 45.5703Z" fill="#1A2517"/>
<path d="M24.5518 89.6746C24.0073 90.9432 22.5373 91.5306 21.2686 90.9862C19.9999 90.4418 19.4128 88.9717 19.957 87.7029L28.9784 66.6788C29.5229 65.41 30.9928 64.8228 32.2617 65.3672C33.5305 65.9117 34.1177 67.3816 33.5733 68.6505L24.5518 89.6746Z" fill="#1A2517"/>
<path d="M100.291 32.7143L91.8169 41.7048C90.8698 42.7095 89.2874 42.756 88.2827 41.809C87.278 40.8619 87.2314 39.2795 88.1785 38.2748L96.6524 29.2856C97.5994 28.281 99.1812 28.234 100.186 29.1808C101.191 30.1278 101.237 31.7096 100.291 32.7143Z" fill="#1A2517"/>
<path d="M113.612 53.001C114.148 53.9287 114.148 55.0713 113.612 55.999L86.6114 102.807C86.0757 103.735 85.0848 104.307 84.0128 104.308H30.0069C28.9349 104.308 27.9441 103.735 27.4083 102.807L23.8514 96.642C23.3907 95.8436 23.3349 94.8744 23.7007 94.0284C24.6516 91.8296 27.7016 91.6531 28.8999 93.7274L30.7608 96.9492C31.2968 97.8769 32.2871 98.4482 33.3585 98.4482H80.6554C81.7297 98.4482 82.7229 97.874 83.2579 96.9424L106.77 55.9941C107.301 55.0691 107.301 53.9309 106.77 53.0059L99.7025 40.6979C99.239 39.8906 99.1836 38.9118 99.5532 38.0573C100.516 35.8308 103.605 35.653 104.817 37.7543L113.612 53.001ZM36.4444 4.69238C38.0781 4.69238 39.2287 6.34194 39.2286 7.97559C39.2286 9.28949 38.2788 10.5517 36.9649 10.5518H33.3585C32.2871 10.5518 31.2968 11.1231 30.7608 12.0508L7.10751 52.999C6.5712 53.9275 6.5712 55.0725 7.10751 56.001L20.2844 78.8124C20.7451 79.6099 20.8011 80.5784 20.4355 81.4237C19.4856 83.6199 16.4389 83.7954 15.2431 81.7228L0.401456 55.999C-0.133819 55.0712 -0.133819 53.9288 0.401456 53.001L27.4083 6.19336C27.9441 5.26479 28.9349 4.69242 30.0069 4.69238H36.4444ZM84.0128 4.69238C85.0848 4.69253 86.0757 5.26475 86.6114 6.19336L96.1657 22.7561C96.6292 23.5596 96.6854 24.535 96.3171 25.3864C95.3586 27.6024 92.2829 27.7763 91.0808 25.6825L83.2579 12.0576C82.7229 11.126 81.7297 10.5518 80.6554 10.5518H61.1974C59.8834 10.5518 58.9337 9.28951 58.9337 7.97559C58.9336 6.34194 60.0842 4.69238 61.7179 4.69238H84.0128Z" fill="#1A2517"/>
<path d="M44.4521 55.7209C43.3561 55.8579 42.3565 55.0805 42.2195 53.9844C42.0825 52.8884 42.8599 51.8888 43.956 51.7518L71.9868 48.248C73.0829 48.1109 74.0825 48.8884 74.2195 49.9844C74.3565 51.0805 73.579 52.0801 72.483 52.2171L44.4521 55.7209Z" fill="#1A2517"/>
<path d="M72.0725 57.4516C72.3482 56.0988 73.6683 55.2253 75.0211 55.5008C76.374 55.7764 77.2473 57.0967 76.9719 58.4495L72.4704 80.5504C72.1948 81.9033 70.8747 82.7767 69.5217 82.5012C68.1688 82.2256 67.2954 80.9054 67.571 79.5525L72.0725 57.4516Z" fill="#1A2517"/>
<path d="M68.9704 41.3373C69.7983 42.4421 71.3653 42.6669 72.4702 41.839C73.5751 41.0112 73.7996 39.4442 72.9718 38.3392L57.7331 18.0007C56.9052 16.8957 55.3384 16.6711 54.2334 17.499C53.1284 18.3269 52.9038 19.8938 53.7317 20.9988L68.9704 41.3373Z" fill="#1A2517"/>
<path d="M38.551 67.1044C37.7052 66.0131 37.9042 64.4428 38.9956 63.597C40.0869 62.7512 41.6572 62.9502 42.503 64.0415L56.4399 82.0241C57.2857 83.1154 57.0866 84.6857 55.9953 85.5315C54.904 86.3773 53.3336 86.1783 52.4878 85.087L38.551 67.1044Z" fill="#1A2517"/>
</svg>
